<svg width="214" height="65" viewBox="0 0 214 65" fill="none" xmlns="http://www.w3.org/2000/svg">
<g clip-path="url(#clip0_2_7)">
<path d="M49.665 16.7763C49.3959 16.002 48.8925 15.3307 48.2245 14.8556C47.5565 14.3804 46.7572 14.1251 45.9375 14.125H17.0625C15.3431 14.125 13.8731 15.2275 13.335 16.7763L7.875 32.5V53.5C7.875 54.9438 9.05625 56.125 10.5 56.125H13.125C13.8212 56.125 14.4889 55.8484 14.9812 55.3562C15.4734 54.8639 15.75 54.1962 15.75 53.5V50.875H47.25V53.5C47.25 54.9438 48.4312 56.125 49.875 56.125H52.5C53.1962 56.125 53.8639 55.8484 54.3562 55.3562C54.8484 54.8639 55.125 54.1962 55.125 53.5V32.5L49.665 16.7763ZM17.0625 43C14.8838 43 13.125 41.2412 13.125 39.0625C13.125 36.8838 14.8838 35.125 17.0625 35.125C19.2412 35.125 21 36.8838 21 39.0625C21 41.2412 19.2412 43 17.0625 43ZM45.9375 43C43.7588 43 42 41.2412 42 39.0625C42 36.8838 43.7588 35.125 45.9375 35.125C48.1162 35.125 49.875 36.8838 49.875 39.0625C49.875 41.2412 48.1162 43 45.9375 43ZM13.125 29.875L17.0625 18.0625H45.9375L49.875 29.875H13.125Z" fill="#FF7A00"/>
</g>
<path d="M93.3 19.6V28.4H83.9V55H72.8V28.4H63.5V19.6H93.3ZM115.761 19.6V42.45C115.761 46.6833 114.644 49.9 112.411 52.1C110.211 54.2667 107.111 55.35 103.111 55.35C98.8105 55.35 95.3939 54.1667 92.8605 51.8C90.3272 49.4333 89.0605 45.9833 89.0605 41.45H100.011C100.011 42.8833 100.244 43.9 100.711 44.5C101.177 45.0667 101.811 45.35 102.611 45.35C103.277 45.35 103.794 45.1333 104.161 44.7C104.527 44.2667 104.711 43.5167 104.711 42.45V19.6H115.761ZM133.653 28.45V32.8H144.653V41.15H133.653V46.15H146.153V55H122.553V19.6H146.153V28.45H133.653ZM173.986 55L163.686 39.65V55H152.586V19.6H163.686V34.5L173.836 19.6H186.386L174.186 36.55L187.186 55H173.986Z" fill="black"/>
<defs>
<clipPath id="clip0_2_7">
<rect width="63" height="63" fill="white" transform="translate(0 1)"/>
</clipPath>
</defs>
</svg>
